# xmcd CD database file
#
# Track frame offsets:
#	150
#	26980
#	49645
#	75717
#	98712
#	118630
#	137850
#	157437
#	177340
#	192752
#	212322
#	258262
#	282407
#
# Disc length: 4283 seconds
#
# Revision: 0
# Processed by: cddbd v1.5.2PL0 Copyright (c) Steve Scherf et al.
# Submitted via: Feurio! 1.68 - http://www.feurio.com
#
DISCID=b910b90d
DTITLE=John Mayer - 2008 # Where The Light Is (live in Los Angeles) [CD1]
DYEAR=2008
DGENRE=
TTITLE0=Neon
TTITLE1=Stop This Train
TTITLE2=In Your Atmosphere
TTITLE3=Daughters
TTITLE4=Free Fallin'
TTITLE5=Everyday I Have the Blues
TTITLE6=Wait Until Tomorrow
TTITLE7=Who Did You Think I Was
TTITLE8=Come When I Call
TTITLE9=Good Love Is on the Way
TTITLE10=Out of My Mind
TTITLE11=Vultures
TTITLE12=Bold as Love
EXTD=
EXTT0=
EXTT1=
EXTT2=
EXTT3=
EXTT4=
EXTT5=
EXTT6=
EXTT7=
EXTT8=
EXTT9=
EXTT10=
EXTT11=
EXTT12=
PLAYORDER=
